<?xml version="1.0" encoding="UTF-8"?>
<svg id="Grupo_21" xmlns="http://www.w3.org/2000/svg" version="1.1" viewBox="0 0 304 76.7">
  <!-- Generator: Adobe Illustrator 30.1.0, SVG Export Plug-In . SVG Version: 2.1.1 Build 136)  -->
  <defs>
    <style>
      .st0 {
        fill: #a470ff;
      }

      .st1 {
        fill: #fff;
      }

      .st2 {
        fill: none;
      }
    </style>
  </defs>
  <g id="Grupo_7">
    <path id="Trazado_8" class="st1" d="M156.8,39c-1.7-.9-3.7-1.4-5.6-1.4s-4,.4-5.8,1.4c-.8.5-1.6,1-2.3,1.7h0v.2c.2.7.3,1.4.3,2.1-.2,3.2-1.2,6.2-2.9,8.9h0v.2c.2,1,.6,2,1.1,2.9.9,1.7,2.3,3.1,4,4,1.8,1,3.7,1.4,5.7,1.4s4.7-.7,6.7-2.1c1.8-1.3,3-3.1,3.7-5.2v-.3h-6.2c-.7,1.7-2.4,2.7-4.2,2.6-1.3,0-2.5-.4-3.4-1.3-.9-.9-1.5-2.1-1.6-3.3h15.8v-.2c.1-.7.2-1.4.2-2.1,0-2-.4-4-1.4-5.7-.9-1.6-2.2-3-3.9-3.9M147.7,43.7c.9-.8,2.1-1.2,3.3-1.2s2.5.4,3.5,1.2c.9.8,1.4,1.9,1.4,3h-9.8c.2-1.2.7-2.3,1.6-3.1"/>
    <path id="Trazado_9" class="st1" d="M179,48.1h0c-1.3-.5-2.6-.9-3.9-1.2-1.2-.3-2.3-.6-3.4-1.1-.6-.2-1-.8-1-1.5s.3-1.1.7-1.4c.7-.4,1.4-.6,2.2-.5.9,0,1.7.2,2.4.7.6.5,1,1.2,1,1.9v.2h5.7v-.2c-.1-2.1-1-4-2.6-5.4-1.8-1.4-4-2.1-6.3-2-1.6,0-3.2.3-4.6.9-1.2.5-2.3,1.3-3.1,2.4-.7,1-1.1,2.2-1.1,3.4s.3,2.6,1.2,3.6c.7.9,1.7,1.5,2.7,2,1.3.5,2.6.9,4,1.2,1.2.3,2.3.7,3.4,1.1.6.2,1,.8,1,1.4s-.3,1.1-.8,1.4c-.7.4-1.5.6-2.3.6s-1.8-.2-2.6-.8c-.6-.5-1.1-1.2-1.2-1.9v-.2h-5.9v.2c0,1.4.6,2.7,1.4,3.7.9,1.2,2.1,2.1,3.4,2.7,1.5.7,3.2,1,4.9,1s3.1-.3,4.6-.9c1.2-.5,2.3-1.3,3.1-2.4.7-1,1.1-2.2,1.1-3.5s-.4-2.6-1.2-3.6c-.7-.9-1.7-1.6-2.7-2"/>
    <path id="Trazado_10" class="st1" d="M193.8,32.6h-5.9v5.4h-2.6v4.9h2.6v10.2c0,4.6,2.4,6.9,7.1,6.9h3.6v-5h-2.7c-.6,0-1.2,0-1.6-.4-.3-.4-.5-.9-.5-1.4v-10.3h4.9v-4.9h-4.9v-5.4h0Z"/>
    <path id="Trazado_11" class="st1" d="M217.1,50.1c0,1.4-.4,2.8-1.2,3.8-.9.9-2.1,1.4-3.4,1.3-1.3,0-2.5-.4-3.4-1.3-.9-1.1-1.3-2.4-1.2-3.8v-12.1h-5.9v12.9c0,1.8.3,3.5,1.1,5.1.7,1.4,1.8,2.5,3.2,3.3s3,1.1,4.6,1.1,2.6-.3,3.8-.8c.9-.4,1.8-1.1,2.5-1.8v2.4h5.9v-22.1h-5.9v12.1h-.1Z"/>
    <path id="Trazado_12" class="st1" d="M243.6,40.6c-.8-.9-1.7-1.6-2.8-2.1-1.3-.6-2.7-.9-4.1-.9-3.7,0-7.2,2-8.8,5.4-.9,1.8-1.4,3.9-1.3,5.9,0,2.1.4,4.1,1.3,6,.8,1.7,2.1,3.1,3.7,4.1,1.5,1,3.3,1.5,5.1,1.4,1.5,0,3-.3,4.4-1,1-.5,1.9-1.2,2.6-2.1v2.8h6v-29.4h-6v9.9h0ZM232.6,48.9c0-1.1.2-2.3.8-3.3,1.4-2.6,4.8-3.6,7.4-2.1h.1c.9.5,1.6,1.2,2,2.1,1,2.1,1,4.5,0,6.7-.5.9-1.2,1.6-2,2.1s-1.8.7-2.8.7-1.9-.3-2.7-.8c-.9-.5-1.6-1.3-2-2.2-.5-1-.8-2.2-.8-3.3"/>
    <path id="Trazado_13" class="st1" d="M257.5,29c-.9,0-1.9.3-2.5,1-1.3,1.3-1.4,3.5,0,4.8h0c1.4,1.3,3.7,1.3,5.1,0,1.3-1.3,1.4-3.5,0-4.8h0c-.7-.7-1.6-1-2.5-1"/>
    <rect id="Rectángulo_4" class="st1" x="254.6" y="38" width="5.9" height="22.1"/>
    <path id="Trazado_14" class="st1" d="M285.3,43c-1-1.7-2.4-3.1-4.1-4-3.6-1.9-7.9-1.9-11.5,0-1.7.9-3.1,2.3-4.1,4-1,1.8-1.5,3.9-1.5,6s.5,4.1,1.5,6c.9,1.7,2.3,3.1,4,4,1.8,1,3.7,1.4,5.7,1.4s4-.5,5.8-1.4c1.7-.9,3.2-2.3,4.1-4,1-1.8,1.6-3.9,1.5-6,0-2.1-.5-4.1-1.5-6M280.7,49c0,1.2-.2,2.4-.8,3.4-.5.9-1.2,1.6-2,2.1s-1.8.7-2.7.7c-1.4,0-2.8-.6-3.7-1.6-1.1-1.3-1.6-2.9-1.5-4.6-.1-1.7.4-3.3,1.5-4.6,1-1,2.4-1.6,3.8-1.6s2.8.6,3.8,1.6c1.1,1.3,1.7,2.9,1.6,4.6"/>
    <path id="Trazado_15" class="st1" d="M50.9,38c-3.3,0-7.5,1.9-7.5,5.6s3.7,6.2,3.7,9.1c0,4.4-3,6.6-5.8,6.6-2.6.2-4.8-1.8-4.9-4.4v-.5c0-2.4,1.5-4.8,4.2-4.8.9,0,1.7.5,1.8,1.4v.2c0,.6,0,1.2-.2,1.8,0,.3,0,.4.6.4,1.1,0,2-.8,2-1.9v-.2c0-1.3-1.1-2.7-3.5-2.7-4.6,0-7.1,3.1-7.1,6.2s2.2,5.4,7,5.4,8.2-2,9.8-5.5c.4-.8.6-1.7.6-2.5v-.5c0-3.5-4.3-6.9-4.3-9.8s2.1-3,3.7-3,1.8.4,1.8,1.1-.4,1.1-.4,1.4c0,.5.4.8.9.8h0c.9,0,1.7-.8,1.7-1.8,0-1.7-1.9-2.5-4.2-2.5"/>
    <path id="Trazado_16" class="st1" d="M58.7,50.8c5.3,0,10.8-3.6,13.2-6.9.7-.9,1.2-1.9,1.3-3.1v-.2c0-.3,0-.6-.3-.9-.4-.6-1.1-1.1-1.9-1.2-.6,0-1.1-.2-1.7-.2-6,0-13.5,8-15.8,14.3-.3.8-.5,1.7-.6,2.6v.8c0,2.3,1.2,3.8,4.4,3.8,5.2,0,9.7-3.7,12.5-7.4.3-.4.6-.8.9-1.2,0,0,0-.2,0-.3,0-.2,0-.3-.2-.5,0,0-.2,0-.3,0s-.2,0-.3.2c-2.5,3.6-5.8,6.6-9.2,6.6s-3.1-1.4-3.1-3.4.2-2,.5-3h.6M68.5,39.6c.7,0,1,.4,1,1.1,0,2.7-4.9,9.4-10.7,9.4h-.5c1.7-4.9,6.2-10.5,10.2-10.5"/>
    <path id="Trazado_17" class="st1" d="M90.5,37.7c-1,0-1.8.3-1.8,1.4s.8,1.5.8,3.8c0,5.7-7.1,14.8-11.1,14.8s-3.2-1.4-3.2-3.5c0-3.8,3-9.6,6.3-12.7h.7c3.2,0,5.2-1.4,5.2-2.3s-.5-.8-1.5-.8c-1.6,0-3.2.7-4.5,1.6-1.8-.6-3.6-.9-5.5-1.1h-1.2c-.7,0-1.3.3-2,.6s-1.3,1-1.3,1.8.2.3.4.3.4,0,.4-.3.3-.7.7-.9c.3,0,.5-.2.8-.2h1.2c1.4.2,3,.6,4.6.8-2.9,2.5-5.3,5.6-7.1,9.1-.5.9-.8,1.9-1.1,2.9-.3.9-.4,1.8-.4,2.7,0,2.5,1.3,4.1,4.6,4.1,8.8,0,16.2-14.6,16.2-20.3s-.4-2.3-1.4-2.3M85.5,39.4c.6,0,.8,0,.8.3,0,.3-1.2.9-2.2.9h-1.2c.7-.6,1.7-1,2.6-1.1"/>
    <path id="Trazado_18" class="st1" d="M106.5,50.4c0,0-.2,0-.3.2-2.5,3.6-5.8,6.6-9.2,6.6s-3.1-1.4-3.1-3.4.2-2,.5-3h.6c7.1,0,14.5-6.4,14.5-10s-1.2-2.4-3.8-2.4c-7.2,0-16.4,11.4-16.4,17.6s1.2,3.8,4.4,3.8c5.5,0,10.4-4.3,13.1-8.2h0c0,0,.2-.3.3-.4,0,0,0-.2,0-.3h0c0-.3-.2-.5-.5-.5M104.8,39.6c.7,0,1,.4,1,1.1,0,2.7-4.9,9.4-10.7,9.4h-.5c1.7-4.9,6.2-10.5,10.2-10.5"/>
    <path id="Trazado_19" class="st1" d="M128,40c0-.7-.8-1.4-2.1-1.4-4.8,0-9.8,7.4-12,10.5h0c.4-1.3.9-2.7,1.5-3.9,1.8-4.1,2.6-5.7,2.6-6.3s0-.3-.4-.3h-4.8c-.2,0-.4,0-.4.4h0c0,.3.2.6.5.6h0c.5,0,.9,0,.9.5,0,.9-1.2,3.6-4.7,11.4-.2.4-.3.7-.5,1.1v.2c-1.6,3.3-2.9,6.6-3,6.9v.2c0,.3.6.5,1.2.5s1.6,0,2.4-.5c0,0,1.8-3.9,2.8-5.8,3.6-6.3,8.2-12.1,14.5-12.4h.5c.7,0,1.2-.6,1.2-1.3v-.2"/>
    <path id="Trazado_20" class="st1" d="M136.6,38.3c-2.5,0-4.8,1.1-6.7,2.7-.9.8-1.8,1.6-2.6,2.5-3.2,3.6-5.5,8.3-5.5,11.8s1.3,4.7,4.8,4.7c5.6,0,11.3-6.1,13.7-11.8.7-1.5,1.1-3.2,1.2-4.9v-.3c0-2.8-1.4-4.8-5-4.8M129,57.5c-2.2,0-3.1-1.7-3.1-4,0-5.1,4.3-13.3,8.4-13.3s4.1,1.9,4.1,4.5c0,5.1-4.6,12.8-9.4,12.8"/>
    <path id="Trazado_21" class="st0" d="M44.9,5.1c-8.4,17.4-16.2,22.9-34.1,24.1,16.9,1.2,20.1,6.7,14.1,24.1,8.4-17.4,16.2-22.9,34.1-24.1-16.9-1.2-20.1-6.7-14.1-24.1M31.4,37.6c2.1-6.1,1-8-4.9-8.4,6.2-.4,9-2.4,11.9-8.4-2.1,6.1-1,8,4.9,8.4-6.2.4-9,2.4-11.9,8.4"/>
  </g>
  <rect class="st2" y=".6" width="304" height="75.6"/>
</svg>