<?xml version="1.0" encoding="UTF-8"?>
<svg id="Capa_2" data-name="Capa 2" xmlns="http://www.w3.org/2000/svg" viewBox="0 0 1173.88 624.08">
  <defs>
    <style>
      .cls-1 {
        fill: #a470ff;
      }

      .cls-2 {
        fill: none;
      }
    </style>
  </defs>
  <g id="Capa_1-2" data-name="Capa 1">
    <g>
      <rect class="cls-2" width="1173.88" height="624.08"/>
      <g>
        <g>
          <path d="M354.5,315.25c0-3,3-9.01,3-11.26,0-5.63-6.38-8.63-14.26-8.63-12.76,0-28.89,7.5-28.89,23.64,0,22.89,33.39,49.15,33.39,76.54,0,42.77-43.9,66.78-81.42,66.78s-54.41-20.64-54.41-42.4c0-23.64,19.89-48.03,55.53-48.03,18.76,0,27.39,10.88,27.39,21.01,0,8.25-5.63,15.76-15.76,15.76-3.75,0-4.88-1.13-4.88-3.38,0-3,1.87-7.5,1.87-14.26,0-7.5-5.25-12.38-13.88-12.38-21.39,0-33.02,18.76-33.02,37.52s12.01,38.27,38.65,38.27c21.76,0,45.4-16.88,45.4-51.4,0-22.51-28.89-51.78-28.89-71.29,0-29.27,32.27-43.9,58.16-43.9,17.63,0,32.64,6.75,32.64,19.88,0,6.38-5.25,13.88-13.13,13.88-4.13,0-7.5-2.25-7.5-6.38Z"/>
          <path d="M516.2,309.99c0,28.14-57.78,78.04-112.93,78.04-1.13,0-2.63,0-4.5-.37-2.25,8.25-3.75,16.51-3.75,23.26,0,15.76,7.13,26.64,24.39,26.64,26.64,0,52.9-23.64,72.04-51.4.75-1.13,1.5-1.5,2.25-1.5,1.88,0,3.75,2.25,3.75,4.5,0,.75,0,1.5-.75,2.62-21.01,31.14-60.03,67.16-104.68,67.16-24.39,0-34.14-12.01-34.14-30.02,0-48.03,72.04-137.32,128.32-137.32,21.01,0,30.02,7.5,30.02,18.38ZM400.64,382.03c1.13.38,2.25.38,4.13.38,45.03,0,83.3-52.53,83.3-73.54,0-5.25-2.25-8.63-7.88-8.63-31.14,0-66.04,43.52-79.54,81.79Z"/>
          <path d="M644.15,326.88c0-18.39-6.38-21.01-6.38-30.02s6.38-11.26,13.88-11.26,10.88,6.76,10.88,17.63c0,44.65-57.41,158.71-126.07,158.71-25.51,0-35.64-13.13-35.64-32.27,0-33.39,31.89-85.92,67.16-115.19-16.13-2.63-32.64-7.13-45.4-7.13-5.63,0-11.63,3.38-12.01,8.25,0,1.88-1.88,2.63-3.38,2.63-1.88,0-3.38-.75-3.38-2.63,0-14.63,23.64-19.13,34.89-19.13,14.63,0,29.26,4.88,42.77,8.25,12.01-7.88,24.01-12.76,34.89-12.76,7.88,0,11.63,2.63,11.63,6,0,7.13-16.13,18.01-40.9,18.01h-5.25c-25.51,24.39-49.15,70.16-49.15,99.43,0,16.13,7.13,27.01,25.14,27.01,31.14,0,86.3-71.29,86.3-115.56ZM619.39,300.99c0-1.13-1.88-2.25-6.38-2.25-6.38,0-13.51,3-20.64,8.25,3.38.75,6.38.75,9.76.75,8.25,0,17.26-4.13,17.26-6.75Z"/>
          <path d="M799.12,309.99c0,28.14-57.78,78.04-112.94,78.04-1.13,0-2.63,0-4.5-.37-2.25,8.25-3.75,16.51-3.75,23.26,0,15.76,7.13,26.64,24.39,26.64,26.64,0,52.9-23.64,72.04-51.4.75-1.13,1.5-1.5,2.25-1.5,1.88,0,3.75,2.25,3.75,4.5,0,.75,0,1.5-.75,2.62-21.01,31.14-60.03,67.16-104.68,67.16-24.39,0-34.14-12.01-34.14-30.02,0-48.03,72.04-137.32,128.32-137.32,21.01,0,30.02,7.5,30.02,18.38ZM683.55,382.03c1.13.38,2.25.38,4.13.38,45.02,0,83.29-52.53,83.29-73.54,0-5.25-2.25-8.63-7.88-8.63-31.14,0-66.03,43.52-79.54,81.79Z"/>
          <path d="M832.51,303.99c0-3.38-3-3.75-7.13-3.75-2.63,0-4.13-2.25-4.13-4.5,0-1.88,1.13-3.38,3.38-3.38,2.63,0,15.38.75,22.14.75,7.13,0,11.26-.38,15.39-.38,1.87,0,3,.75,3,2.63,0,4.5-6,16.88-20.26,49.15-1.13,1.5-12.01,25.89-12.01,30.39,0,.38,0,.75.38.75s.75-.38,1.13-.75c17.26-24.76,56.28-82.17,93.42-82.17,11.63,0,16.51,6.76,16.51,12.76,0,5.25-3.75,10.13-9.01,10.13-51.4,0-88.17,46.52-117.06,96.8-8.25,14.63-22.14,45.03-22.14,45.03-1.5,1.88-10.88,4.13-18.39,4.13-5.25,0-9.76-1.13-9.76-3.75,0-.75.38-1.5.38-1.5,1.13-2.25,11.63-28.51,23.64-55.15,30.39-66.79,40.52-89.67,40.52-97.18Z"/>
          <path d="M896.3,423.3c0-49.9,59.28-132.82,115.19-132.82,27.39,0,38.65,15.39,38.65,37.15,0,49.9-59.28,132.07-116.69,132.07-26.64,0-37.14-15.01-37.14-36.39ZM928.57,408.67c0,18.01,7.13,31.52,24.01,31.52,37.14,0,73.16-59.66,73.16-99.8,0-20.26-9.01-35.27-31.89-35.27-31.89,0-65.29,63.78-65.29,103.56Z"/>
        </g>
        <path class="cls-1" d="M296.88,31.88C231.55,166.87,171,210,31.75,219.39c131.07,9.45,156.54,52.14,109.88,187.5,65.35-134.98,125.89-178.12,265.12-187.51-131.07-9.45-156.5-52.16-109.87-187.51ZM192.22,284.69c16.25-47.15,7.38-62.01-38.28-65.31,48.5-3.26,69.59-18.29,92.35-65.31-16.24,47.14-7.38,62.02,38.27,65.31-48.49,3.27-69.59,18.3-92.34,65.31Z"/>
      </g>
    </g>
  </g>
</svg>